<?xml version="1.0" encoding="UTF-8"?>
<svg id="Ebene_1" data-name="Ebene 1" xmlns="http://www.w3.org/2000/svg" viewBox="0 0 24 24">
  <defs>
    <style>
      .cls-1 {
        fill: #f0f0f0;
        isolation: isolate;
        opacity: .3;
      }

      .cls-1, .cls-2, .cls-3, .cls-4, .cls-5, .cls-6, .cls-7, .cls-8, .cls-9, .cls-10 {
        stroke-width: 0px;
      }

      .cls-2 {
        fill: #f2f2f2;
      }

      .cls-3 {
        fill: #2f2e41;
      }

      .cls-4 {
        fill: #a8a8a8;
      }

      .cls-5 {
        fill: #ccc;
      }

      .cls-6 {
        fill: #c1f000;
      }

      .cls-7 {
        fill: #a0616a;
      }

      .cls-8 {
        fill: #ffb6b6;
      }

      .cls-9 {
        fill: #e9faa4;
      }

      .cls-10 {
        fill: #e6e6e6;
      }
    </style>
  </defs>
  <g id="Gruppe_207" data-name="Gruppe 207">
    <path id="Pfad_180" data-name="Pfad 180" class="cls-2" d="m6.24,22.84c-.07,0-.13-.05-.13-.12,0-.04.01-.07.04-.1v-.03c-.06-.18-.26-.26-.43-.19-.09.03-.15.1-.19.19-.15.35-.35.72-.25,1.11-.63-1.39-.43-3.02.52-4.21.27-.14.46-.4.53-.7-.13.04-.29-.06-.19-.2.04-.05.08-.1.13-.16-.49-.52-1.08.3-.54,1.01-.18.22-.33.46-.46.72.03-.27,0-.54-.1-.8-.1-.24-.28-.44-.44-.64-.12-.15-.34-.18-.49-.06-.08.06-.12.15-.13.24.18.06.21.32,0,.36.06.6.43,1.12.97,1.39-.2.55-.27,1.13-.22,1.71-.09-.68-.82-.84-1.33-1.11-.09-.06-.21-.03-.27.06-.03.04-.04.09-.03.14.07.03.14.06.2.11.08.05.1.16.05.24-.03.04-.08.07-.13.08.27.64.9,1.06,1.6,1.06.07.28.16.56.28.83h1.01s0-.02.01-.03c-.09,0-.19,0-.28-.02.25-.29.44-.44.29-.85h0Z"/>
    <path id="Pfad_181" data-name="Pfad 181" class="cls-2" d="m15.24,22.84c.07,0,.13-.05.13-.12,0-.04-.01-.07-.04-.1v-.03c.06-.18.26-.26.43-.19.09.03.15.1.19.19.15.35.35.72.25,1.11.63-1.39.43-3.02-.52-4.21-.27-.14-.46-.4-.53-.7.13.04.29-.06.19-.2-.04-.05-.08-.1-.13-.16.49-.52,1.08.3.54,1.01.18.22.33.46.46.72-.03-.27,0-.54.1-.8.1-.24.28-.44.44-.64.12-.15.34-.18.49-.06.08.06.12.15.13.24-.18.06-.21.32,0,.36-.06.6-.43,1.12-.97,1.39.2.55.27,1.13.22,1.71.09-.68.82-.84,1.33-1.11.09-.06.21-.03.27.06.03.04.04.09.03.14-.07.03-.14.06-.2.11-.08.05-.1.16-.05.24.03.04.08.07.13.08-.27.64-.9,1.06-1.6,1.06-.07.28-.16.56-.28.83h-1.01s0-.02-.01-.03c.09,0,.19,0,.28-.02-.25-.29-.44-.44-.29-.85h0Z"/>
    <path id="Pfad_182" data-name="Pfad 182" class="cls-8" d="m15.62,22.99l-.44.1-.59-1.63.64-.15.38,1.68Z"/>
    <path id="Pfad_183" data-name="Pfad 183" class="cls-3" d="m15.74,23.44l-1.34.3v-.02c-.07-.29.11-.57.4-.64h0l.2-.24.5.08.12-.03.12.54Z"/>
    <path id="Pfad_184" data-name="Pfad 184" class="cls-8" d="m22.64,15.04l.24.38-1.34,1.1-.35-.56,1.45-.92Z"/>
    <path id="Pfad_185" data-name="Pfad 185" class="cls-3" d="m23.02,14.78l.74,1.16h-.01c-.25.17-.58.09-.74-.16h0l-.29-.11-.09-.5-.06-.1.47-.3Z"/>
    <path id="Pfad_186" data-name="Pfad 186" class="cls-7" d="m8.77,11.01l-.11-.62,1.63-.74.35-.62c-.03-.16.07-.33.24-.36.16-.03.33.07.36.24.03.13-.03.26-.15.33l-.58.9-1.75.89Z"/>
    <path id="Pfad_187" data-name="Pfad 187" class="cls-6" d="m8.27,10.5l.74-.38.19.73-.51.38-.42-.73Z"/>
    <path id="Pfad_188" data-name="Pfad 188" class="cls-7" d="m6.62,22.93h.44l.21-1.72h-.66v1.72Z"/>
    <path id="Pfad_189" data-name="Pfad 189" class="cls-3" d="m7.21,22.97v-.3h-.12s-.48.04-.48.04h-.11s-.08,1.02-.08,1.02v.05s.31,0,.31,0v-.05s.06-.24.06-.24l.12.24.03.05h.84c.1,0,.19-.08.19-.19.03-.16-.66-.52-.75-.62Z"/>
    <path id="Pfad_190" data-name="Pfad 190" class="cls-7" d="m1.34,16.12l-.1.43,1.62.61.15-.64-1.67-.4Z"/>
    <path id="Pfad_191" data-name="Pfad 191" class="cls-3" d="m1.2,16.69l.29.07.02-.12.08-.47.02-.11-.96-.32-.05-.02-.07.31.05.02.23.1-.27.06h-.06s-.2.83-.2.83c-.02.1.04.2.14.23.15.07.66-.52.77-.59Z"/>
    <path id="Pfad_192" data-name="Pfad 192" class="cls-7" d="m7.31,11.83l-.57-.27-1.14,1.38-.7.18c-.15-.08-.33-.02-.41.13-.08.15-.02.33.13.41.12.06.26.04.35-.06l1.02-.32,1.31-1.45Z"/>
    <path id="Pfad_193" data-name="Pfad 193" class="cls-10" d="m15.43,6.71c-.34,0-.61-.27-.61-.61,0-.34.27-.61.61-.61s.61.27.61.61h0c0,.34-.27.61-.61.61Zm0-1.16c-.3,0-.54.24-.54.54s.24.54.54.54.54-.24.54-.54-.24-.54-.54-.54h0Z"/>
    <path id="Pfad_194" data-name="Pfad 194" class="cls-10" d="m15.38,6.33h0s-.04-.01-.06-.03l-.1-.12s-.02-.08.01-.11h0s.08-.02.11.01c.02.02.05.03.08,0,0,0,0,0,0,0l.2-.21s.08-.03.11,0h0s.03.08,0,.11h0s-.3.32-.3.32c-.01.02-.03.02-.06.02Z"/>
    <path id="Pfad_195" data-name="Pfad 195" class="cls-10" d="m12.36,14.14c-.34,0-.61-.27-.61-.61,0-.34.27-.61.61-.61s.61.27.61.61h0c0,.34-.27.61-.61.61Zm0-1.16c-.3,0-.54.24-.54.54s.24.54.54.54.54-.24.54-.54-.24-.54-.54-.54h0Z"/>
    <path id="Pfad_196" data-name="Pfad 196" class="cls-10" d="m12.32,13.76h0s-.04-.01-.06-.03l-.1-.12s-.02-.08.01-.11h0s.08-.02.11.01c0,0,0,0,0,0,.02.02.05.03.08,0,0,0,0,0,0,0l.2-.21s.08-.03.11,0h0s.03.08,0,.11h0s-.3.32-.3.32c-.01.02-.03.02-.06.02Z"/>
    <path id="Pfad_197" data-name="Pfad 197" class="cls-10" d="m5.64,5.87c-.34,0-.61-.27-.61-.61s.27-.61.61-.61c.34,0,.61.27.61.61h0c0,.34-.27.61-.61.61Zm0-1.16c-.3,0-.54.24-.54.54s.24.54.54.54c.3,0,.54-.24.54-.54s-.24-.54-.54-.54h0Z"/>
    <path id="Pfad_198" data-name="Pfad 198" class="cls-10" d="m5.59,5.48h0s-.04-.01-.06-.03l-.1-.12s-.02-.08.01-.11h0s.08-.02.11.01c.02.02.05.03.08,0,0,0,0,0,0,0l.2-.21s.08-.03.11,0h0s.03.08,0,.11l-.3.32s-.03.02-.06.02Z"/>
    <path id="Pfad_199" data-name="Pfad 199" class="cls-2" d="m10.55,16.42c-1.42,0-3.06-1.58-4.51-.83-4.38,2.27-3.78-1.53-5.04-2.94l.04-.08c1.47,1.29,3.17,2.29,5.01,2.93,1.71.61,3.43.89,4.98.81v.1c-.16,0-.33.01-.49.01Z"/>
    <ellipse id="Ellipse_67" data-name="Ellipse 67" class="cls-10" cx="8.6" cy="5.35" rx=".3" ry=".4"/>
    <path id="Pfad_200" data-name="Pfad 200" class="cls-10" d="m12.03,11.97c-.06.04-.14.02-.17-.04-.04-.06-.02-.14.04-.17s.14-.02.17.04c.04.06.02.14-.04.17Z"/>
    <circle id="Ellipse_68" data-name="Ellipse 68" class="cls-9" cx="11.25" cy="4.32" r=".39"/>
    <path id="Pfad_201" data-name="Pfad 201" class="cls-1" d="m12.61,6.44L14.81,0l-2.42,6.36c-.04.05-.03.13.02.17.05.04.13.03.17-.02.02-.02.03-.05.03-.07h0Z"/>
    <circle id="Ellipse_69" data-name="Ellipse 69" class="cls-2" cx="10.38" cy="13.91" r=".38"/>
    <path id="Pfad_202" data-name="Pfad 202" class="cls-3" d="m6.73,14.05s-.94.61-.69,1.02c0,.01-1.12,1.51-1.12,1.51l-2.13-.14-.08.71,1.9.55s.46.34.82-.03,1.56-1.53,1.56-1.53l.06,2.33-.6,3.22.9-.06.87-3.23.32-3.66-1.81-.69Z"/>
    <path id="Pfad_203" data-name="Pfad 203" class="cls-6" d="m7.4,10.38l-.4.3-.45.96.43.59s.36.63-.22,1.24-1.03,1.26-.56,1.24,2.36.94,2.37.15.04-1.39.04-1.39l.5-1.26s.3-.75.09-.97-.48-.51-.48-.51l-.5-.5h-.46l-.35.16Z"/>
    <path id="Pfad_204" data-name="Pfad 204" class="cls-7" d="m8.14,8.54c.89.5.16,1.84-.74,1.36-.89-.5-.16-1.84.74-1.36Z"/>
    <path id="Pfad_205" data-name="Pfad 205" class="cls-3" d="m8.61,8.82c-.06.08-.19.04-.45.1,0-.09,0-.17-.03-.26-.02.1-.06.2-.12.29-.22.02.05.69-.06,1.19-.15-1.04-.45-.77-.3-.56.1.13.03.53-.26.33-.49.23-1.19-.92-.41-1.47-.01-.29.31-.34.51-.25.49-.36,1.05.1,1.12.63Z"/>
    <path id="Pfad_206" data-name="Pfad 206" class="cls-3" d="m6.34,8.06c-.2,1.21-1.26-.22-1.75.97-.16.43.11.74.28,1.1.04.29-.35.44-.39.72-.01.62.99.58,1.27.19.29-.41-.06-.96.12-1.4.24-.61,1.23-.62,1.32-1.33-.17-.24-.62-.51-.86-.25Z"/>
    <path id="Pfad_207" data-name="Pfad 207" class="cls-3" d="m7.14,8.18s-.01,0-.02,0h0s-.01,0-.02,0h0s-.01-.01-.02-.02c0,.01,0,.02,0,.03h0s.01.02.02.03c0,0,.01-.01.02-.02,0,0,0,0,.01-.01,0,0,0-.02,0-.03h0Zm.2-.38c-.15-.03-.2.16-.22.26-.06-.35-.28-.24-.2,0,.03.07.06.13.12.19,0,0,.01.02.02.02,0,.05.04.04.1,0,.05-.03.09-.07.13-.11.12-.13.22-.31.05-.35h0Zm0,.2c-.05.06-.1.12-.16.17-.02.02-.04.03-.06.05,0,0,0,0,0,0,0,0,0,0,0,0-.02.03-.04.02-.05-.01,0,0,0,0,0,0-.03-.03-.05-.06-.07-.09-.14-.24.09-.41.07.05,0,0,0,0,0,.01,0,.01,0,.02,0,.03h0s.01.02.02.03c0,0,.01-.01.02-.02,0,0,0,0,.01-.01,0,0,0-.02,0-.03h0c0-.1.03-.21.08-.3.1-.08.22,0,.13.12h0Zm-.21.18s-.01,0-.02,0h0s-.01,0-.02,0h0s-.01-.01-.02-.02c0,.01,0,.02,0,.03h0s.01.02.02.03c0,0,.01-.01.02-.02,0,0,0,0,.01-.01,0,0,0-.02,0-.03h0Z"/>
    <path id="Pfad_208" data-name="Pfad 208" class="cls-3" d="m15.33,14.86l-.33.85-1.54,3.03,1.35,3.52.7-.18-.57-3.34,1.65-2,1.96,1.33s.87.68,1.2.04,2.47-2.01,2.47-2.01l-.53-.56-2.46,1.15-1.7-2.39-2.19.56Z"/>
    <path id="Pfad_209" data-name="Pfad 209" class="cls-4" d="m16.98,10.84l-.54-.58-.92-.13-1.13.79v.88s.57,2.07.57,2.07c0,0-.21,1.49.38,1.47s.92-.31,1.16-.25,1.27.32,1.34.05.41-.08.4-.33-.94-2.09-.94-2.09l.23-1.84-.55-.04Z"/>
    <path id="Pfad_210" data-name="Pfad 210" class="cls-8" d="m20.39,8.17c.02.18-.11.34-.3.36-.02,0-.04,0-.06,0l-1.24,2.36-.33-.51,1.27-2.22c.03-.18.19-.31.38-.28.15.02.27.14.28.3h0Z"/>
    <path id="Pfad_211" data-name="Pfad 211" class="cls-4" d="m16.49,11.28c-.02.26.17.49.42.52.47.1,1.78-.64,1.99-.76.07-.04.16-.21.25-.43.04-.1.08-.21.13-.32.02-.06.14-.08.16-.15s-.05-.17-.03-.23c.1-.29.16-.51.16-.51l-.31-.59c-.44.23-.66.74-.83,1.33l-1.95,1.14Z"/>
    <path id="Pfad_212" data-name="Pfad 212" class="cls-8" d="m10.98,8.71c.03.18.2.3.38.28.02,0,.04,0,.06-.01l1.79,1.97.19-.58-1.78-1.84c-.07-.17-.27-.25-.43-.18-.14.06-.22.21-.2.36h0Z"/>
    <path id="Pfad_213" data-name="Pfad 213" class="cls-4" d="m15.53,10.74c.08.25-.04.51-.28.61-.43.22-1.88-.18-2.12-.23-.07-.02-.21-.16-.35-.36-.07-.09-.13-.18-.2-.28-.04-.06-.15-.05-.19-.1s0-.18-.03-.23c-.16-.25-.29-.45-.29-.45l.16-.65c.48.11.83.55,1.13,1.08l2.17.62Z"/>
    <circle id="Ellipse_70" data-name="Ellipse 70" class="cls-8" cx="16" cy="9.1" r=".88"/>
    <path id="Pfad_214" data-name="Pfad 214" class="cls-3" d="m17,8.6c-.09-.15-.26-.23-.43-.21-.05-.32-.35-.55-.67-.5-.12.02-.23.07-.32.16-.05-.04-.12-.04-.18-.02-.06.03-.11.07-.15.12-.2.25-.24.58-.12.87-.02-.07.05-.15.13-.16s.16,0,.23-.01c.1-.01.19-.07.29-.08.08,0,.17,0,.25.03.08.03.16.04.25.03.08,0,.19.3.19.53,0,.04,0,.1.05.1.05.01.08-.06.13-.08.05-.01.09.01.11.06.01.05,0,.09-.03.13-.03.04-.06.07-.1.09l.02.02s.1.05.15.02c.05-.03.08-.07.11-.12.09-.14.16-.3.2-.47.04-.17,0-.34-.08-.49Z"/>
    <path id="Pfad_215" data-name="Pfad 215" class="cls-2" d="m23.51,12.07c-1.13.86-3.39.59-4.09,2.06-2.12,4.46-3.94,1.06-5.79.69l-.02-.09c1.95.14,3.91-.09,5.77-.69,1.73-.55,3.27-1.36,4.46-2.36l.06.08c-.13.1-.26.21-.39.31Z"/>
    <path id="Pfad_216" data-name="Pfad 216" class="cls-5" d="m18.71,23.74c-.03.08-15.45.08-15.48,0,.03-.08,15.45-.08,15.48,0Z"/>
  </g>
</svg>