<?xml version="1.0" encoding="UTF-8"?>
<svg id="Ebene_1" data-name="Ebene 1" xmlns="http://www.w3.org/2000/svg" viewBox="0 0 100.91 176.89">
  <defs>
    <style>
      .cls-1 {
        fill: #2f2e41;
      }

      .cls-1, .cls-2, .cls-3, .cls-4, .cls-5, .cls-6, .cls-7 {
        stroke-width: 0px;
      }

      .cls-2 {
        fill: #3f3d56;
      }

      .cls-3 {
        fill: #c2ef00;
      }

      .cls-4 {
        fill: #ccc;
      }

      .cls-5 {
        fill: #dfe5ee;
      }

      .cls-6 {
        fill: #fff;
      }

      .cls-7 {
        fill: #ffb6b6;
      }
    </style>
  </defs>
  <g id="Gruppe_66" data-name="Gruppe 66">
    <path id="Pfad_89" data-name="Pfad 89" class="cls-3" d="m20.37,18.92l-3.03-13.45-.99-4.38c-.17-.75-.92-1.22-1.67-1.05l-1.49.34L1.21,3.07C.46,3.24-.01,3.99.16,4.74c0,0,0,0,0,0-.61,5.77.57,11.59,3.38,16.67.2.39.42.77.64,1.16.06.27.2.51.39.7.34.32.82.46,1.27.35l1.57-.35.97-.22,10.93-2.46c.75-.17,1.22-.92,1.05-1.67Z"/>
    <path id="Pfad_90" data-name="Pfad 90" class="cls-6" d="m19.11,18.17l-2.89-12.79-.69-3.07c-.16-.7-.86-1.15-1.56-.99l-.92.21L2.4,3.92c-.7.16-1.15.86-.99,1.56.09,4.66.58,8.88,2.59,11.46.46,2.04,1.99,3.68,3.99,4.28l.07.02.05.02c.93.26,1.9.29,2.84.08l7.17-1.62c.7-.16,1.15-.86.99-1.56Z"/>
    <path id="Pfad_91" data-name="Pfad 91" class="cls-3" d="m8.5,8.19c.48-.56,1.28-.73,1.95-.43.67.36,1.03,1.12.87,1.86-.24.81-.45,1.63-.61,2.46-.07.77.28,1.51.91,1.95.48.29.97-.43.49-.72-.79-.48-.52-1.54-.3-2.25.39-.86.47-1.83.23-2.74-.52-1.28-1.97-1.9-3.25-1.38-.33.13-.63.34-.87.59-.38.41.19,1.07.57.66h0Z"/>
    <circle id="Ellipse_5" data-name="Ellipse 5" class="cls-3" cx="12.33" cy="15.68" r=".87"/>
    <path id="Pfad_92" data-name="Pfad 92" class="cls-3" d="m67.13,168.3l-13.78-.08-4.49-.03c-.77,0-1.4.29-1.41.66l-.02.73-.15,5.82c-.01.36.61.67,1.38.67,5.62.92,11.35,1.01,17,.28.42-.05.85-.11,1.28-.17.26,0,.52-.03.77-.1.38-.12.63-.32.64-.55l.02-.76v-.47s.15-5.31.15-5.31c0-.37-.61-.67-1.38-.68Z"/>
    <path id="Pfad_93" data-name="Pfad 93" class="cls-6" d="m66.11,168.79l-13.11-.08-3.15-.02c-.72,0-1.32.27-1.32.61v.45s-.15,5.18-.15,5.18c0,.34.57.62,1.29.63,4.55.47,8.78.71,11.75.07,1.8.1,3.59-.38,5.09-1.37l.04-.03.03-.02c.42-.31.68-.78.73-1.3l.09-3.48c.01-.35-.57-.63-1.29-.63Z"/>
    <path id="Pfad_94" data-name="Pfad 94" class="cls-3" d="m53.95,172.59c-.4-.28-.44-.67.04-.95.63-.29,1.34-.36,2.01-.2.79.15,1.43.44,2.26.55.71.12,1.43.05,2.1-.21.39-.19-.19-.49-.59-.3-.75.21-1.54.17-2.26-.11-.84-.29-1.72-.43-2.61-.41-1.79.11-2.72,1.11-1.72,1.82.31.22,1.08.03.77-.19h0Z"/>
    <ellipse id="Ellipse_6" data-name="Ellipse 6" class="cls-3" cx="62.12" cy="171.65" rx=".87" ry=".41"/>
    <path id="Pfad_95" data-name="Pfad 95" class="cls-3" d="m.78,67.38c-1.28-4.93-.91-10.14,1.05-14.84.05-.63.59-1.1,1.21-1.05l11.21.8c.63.05,1.1.59,1.05,1.21l-1.05,14.84c-.05.63-.59,1.1-1.21,1.05l-11.21-.8c-.63-.05-1.1-.59-1.05-1.21Z"/>
    <path id="Pfad_96" data-name="Pfad 96" class="cls-6" d="m1.95,62.96c-.96-2.48-.35-5.89.68-9.54.04-.59.55-1.03,1.14-.99l9.63.68c.59.04,1.03.55.99,1.14l-.94,13.2c-.04.59-.55,1.03-1.14.99l-5.97-.42c-2.61-.19-4.57-2.45-4.39-5.06h0Z"/>
    <path id="Pfad_97" data-name="Pfad 97" class="cls-3" d="m8.62,63.61l-.88-.15c.14-.32.21-.66.23-1.01.14-1.86.15-3.73.23-5.59,0-.19-.16-.35-.36-.35-.09,0-.18.04-.24.1l-2.22,1.84c-.35.29.15.78.49.49l1.59-1.32-.15,3.66c.05.62-.02,1.25-.19,1.85-.03.07-.08.14-.13.21l-.98-.17c-.23-.04-.53.15-.43.43.23.55.85.8,1.4.58.02,0,.04-.02.05-.02.05-.02.1-.05.14-.08l1.24.21c.44.07.63-.6.19-.67Z"/>
    <path id="Pfad_98" data-name="Pfad 98" class="cls-3" d="m41.45,68.78c-1.28-4.93-.91-10.14,1.05-14.84.05-.63.59-1.1,1.21-1.05l11.21.8c.62.05,1.1.59,1.05,1.21l-1.05,14.84c-.05.63-.59,1.1-1.21,1.05l-11.21-.8c-.63-.04-1.1-.59-1.05-1.21h0Z"/>
    <path id="Pfad_99" data-name="Pfad 99" class="cls-6" d="m42.62,64.35c-.96-2.48-.35-5.89.68-9.54.04-.59.55-1.03,1.14-.99l9.63.68c.59.04,1.03.55.99,1.14l-.94,13.2c-.04.59-.55,1.03-1.14.99l-5.97-.42c-2.61-.19-4.57-2.45-4.39-5.06Z"/>
    <path id="Pfad_100" data-name="Pfad 100" class="cls-3" d="m48.91,61.84c.13-.06.25-.13.36-.22.61-.5.87-1.32.65-2.08-.45-1.66-2.44-1.67-3.81-1.47-.44.06-.25.74.18.67.92-.14,2.38-.24,2.87.77.23.48.15,1.06-.21,1.46-.21.21-.49.34-.78.37-.29-.12-.6-.18-.91-.17-.32.02-.5.48-.18.65.29.14.61.22.93.22.55.26.88.83.85,1.44-.13.85-.93,1.44-1.78,1.31,0,0,0,0,0,0-.44-.09-.62.58-.18.67,1.23.23,2.41-.58,2.65-1.81,0-.03.01-.06.02-.09.06-.64-.18-1.27-.65-1.72h0Z"/>
    <path id="Pfad_101" data-name="Pfad 101" class="cls-7" d="m63.23,163.93h-3.94l-1.88-15.21h5.82v15.21Z"/>
    <path id="Pfad_102" data-name="Pfad 102" class="cls-1" d="m63.36,168.05h-12.12v-.15c0-2.61,2.11-4.72,4.72-4.72h0l2.22-1.68,4.13,1.68h1.06v4.87Z"/>
    <path id="Pfad_103" data-name="Pfad 103" class="cls-7" d="m81.35,172.3h-3.94l-1.88-15.21h5.82v15.21Z"/>
    <path id="Pfad_104" data-name="Pfad 104" class="cls-1" d="m81.49,176.41h-12.12v-.15c0-2.61,2.11-4.72,4.72-4.72h0l2.22-1.68,4.13,1.68h1.06v4.87Z"/>
    <path id="Pfad_105" data-name="Pfad 105" class="cls-7" d="m32.84,50.68c1.03,1.15,2.8,1.26,3.95.23.11-.1.22-.21.32-.33l13.44,3.83,1.97-3.46-16-4.43c-1.27-.88-3.01-.57-3.9.7-.74,1.06-.65,2.5.21,3.46h0Z"/>
    <path id="Pfad_106" data-name="Pfad 106" class="cls-1" d="m67.8,82.69l-14.15,32.34-1.63,5.11,4.92,35.88,7.94-.39-.02-4.6s-1.89-1.02,0-1.58,1.8-1.97-.02-4.05-.09-22.01-.09-22.01c0,0,7.49-7.17,6.68-9.05s.7-1.87.7-1.87c0,0,1.61-.29,1.68-1.07.27-.86.7-1.66,1.26-2.36l-.42,55.27h6.85s3.13-5.2,2.52-6.32-1.48-1.23,0-2.57,3.64-.24,2.67-2.77-.72-29.75-.72-29.75c0,0,3.81-15.8,1.46-16.88s-1.18-.92.21-2.39-.97-1.34.21-2.45,1.23-14.21,1.23-14.21l-21.27-4.28Z"/>
    <path id="Pfad_107" data-name="Pfad 107" class="cls-5" d="m90.14,91.79c-9.92-.02-18.42,2.2-28.34,2.18.65-4.47,2.9-11.48,3.55-15.95.91-6.29.2-10.04,1.11-16.33.09-.62.18-1.23.27-1.85.36-2.49-.5-4.97,1.04-7.6.9-1.41,2.12-2.59,3.55-3.44,3.75.38,3.69-1.31,7.44-.93l1.24,2.47c.16.87.72,1.61,1.5,2.01,1.59.96,4.03,1.29,5.5,2.59,1.84,1.63,1.72,4.24,1.17,6.79-.2.91-.44,1.8-.68,2.65-1.89,6.8.53,11.98,2.49,18.29.19.6-1.58,2.91-1.39,3.49.32.98,1.46,2.19,1.27,2.85-.37.92-.27,1.96.28,2.79Z"/>
    <path id="Pfad_108" data-name="Pfad 108" class="cls-5" d="m88.17,61.74l-21.71-.05h-.7l-25.74-9.46,3.29.11,1.53-3.52.74-1.69,15.17,5.07,7.01.05,13.22.1c.17,0,.34,0,.5.01,1.59.96,4.03,1.29,5.5,2.59,1.85,1.63,1.73,4.24,1.18,6.78Z"/>
    <circle id="Ellipse_7" data-name="Ellipse 7" class="cls-7" cx="73.34" cy="40.14" r="7.05"/>
    <path id="Pfad_109" data-name="Pfad 109" class="cls-1" d="m72.33,46.21l.58,1.84c1.27-.63,4.89-1.5,5.95-2.45,1.11-.91,1.81-2.24,1.93-3.67-.06-.73-.07-1.47-.03-2.2.25-.79.54-1.57.87-2.32.45-1.72-.39-3.52-2-4.28-1.23-.36-2.5-.53-3.78-.49-1.27-.12-2.69-.7-3.05-1.93-.13-.46-.12-1-.53-1.3-.43-.29-1-.2-1.33.19-.02.02-.04.04-.05.07-.87,1.17-2.53,1.41-3.7.54-.17-.13-.33-.28-.47-.45-.07-.09-.13-.18-.2-.27-.93.87-.98,2.34-.11,3.27,0,0,.01.01.02.02-.83,0-1.54-.57-1.73-1.37-.54.64-.93,1.38-1.14,2.19-.2.83.15,1.7.88,2.14.38.15.79.22,1.2.2-1.93,2.28-.77,2.22,3.13.06,1.94.04,1.17,1.84,1.2,3.77h0c.91-.17,1.84-.09,2.71.21.4.17.74.46.97.83.57.98,0,2-.5,2.89-.53.71-.71,1.62-.48,2.48"/>
    <path id="Pfad_110" data-name="Pfad 110" class="cls-7" d="m59.5,105.34c1.35-.75,1.85-2.45,1.1-3.8-.07-.13-.16-.26-.25-.38l6.73-12.25-2.93-2.7-7.89,14.61c-1.14,1.04-1.23,2.81-.19,3.96.87.96,2.29,1.19,3.42.57h0Z"/>
    <path id="Pfad_111" data-name="Pfad 111" class="cls-5" d="m75.91,48.05l-1.57,28.1-7.56,17.66-4.92,6.52.56-2.96-3.39-1.7-.32-.16,4.51-11.43,1.36-3.45.63-10.38.6-9.82c.21-3.42,1.84-6.59,4.49-8.74l3.77-3.06,1.83-.59Z"/>
    <path id="Pfad_112" data-name="Pfad 112" class="cls-3" d="m23.09,48.09c-1.28-4.93-.91-10.14,1.05-14.84.05-.63.59-1.1,1.21-1.05l11.21.8c.63.05,1.1.59,1.05,1.21l-1.05,14.84c-.05.63-.59,1.1-1.21,1.05l-11.21-.8c-.63-.05-1.1-.59-1.05-1.21Z"/>
    <path id="Pfad_113" data-name="Pfad 113" class="cls-6" d="m24.26,43.67c-.96-2.48-.35-5.89.68-9.54.04-.59.55-1.03,1.14-.99l9.63.68c.59.04,1.03.55.99,1.14l-.94,13.2c-.04.59-.55,1.03-1.14.99l-5.97-.42c-2.61-.19-4.57-2.45-4.39-5.06Z"/>
    <path id="Pfad_114" data-name="Pfad 114" class="cls-3" d="m30.18,37.03c-.88-.29-1.83.19-2.12,1.07-.29.88.19,1.83,1.07,2.12.33.11.69.11,1.03,0,.18-.06.28-.26.22-.44-.06-.17-.23-.27-.41-.23-.52.16-1.07-.14-1.23-.66-.07-.24-.05-.49.06-.72.21-.37.63-.58,1.05-.51.36.1.64.36.78.71.28.86.02,1.8-.68,2.38-.35.36-.75.64-1.12.96-.37.28-.6.69-.64,1.15.02.52.33.98.79,1.2.61.24,1.27.28,1.9.11.44-.07.25-.74-.18-.67-.55.09-1.38.22-1.73-.35-.3-.49.32-.93.65-1.19.94-.6,1.6-1.55,1.83-2.63.14-.96-.39-1.9-1.28-2.29Z"/>
    <path id="Pfad_115" data-name="Pfad 115" class="cls-3" d="m88.3,172.86c.29.01.54-.21.55-.5,0-.16-.05-.31-.17-.41l-.04-.14v-.03c.32-.72,1.15-1.06,1.87-.75.34.14.61.42.76.76.51,1,.88,2.05,1.1,3.15.06.48.03.97-.07,1.44,1-2.19,1.52-4.57,1.53-6.98,0-.6-.03-1.21-.1-1.81-.06-.49-.13-.98-.23-1.47-.54-2.63-1.69-5.1-3.37-7.2-.81-.44-1.47-1.12-1.88-1.95-.15-.3-.26-.62-.31-.94.18-.47.27-.97.28-1.47.13-.19.36-.29.5-.48.69-.94,1.65-.78,2.15.5,1.07.54,1.08,1.43.42,2.29-.42.54-.47,1.28-.84,1.87.04.05.08.09.11.14.69.88,1.28,1.83,1.78,2.83-.12-1.12.02-2.25.42-3.3.49-.96,1.11-1.86,1.84-2.65.49-.64,1.41-.75,2.05-.26.31.24.51.59.55.97v.04c-.1.06-.2.12-.29.18-.33.22-.41.66-.19.99.11.17.29.28.48.31h.02c-.04.36-.1.71-.19,1.06.86,3.33-1,4.54-3.65,4.59-.06.03-.12.06-.17.09.5,1.43.82,2.91.94,4.42.07.89.06,1.78-.01,2.67v-.03c.19-.99.72-1.88,1.5-2.52,1.15-.94,2.77-1.29,4.01-2.05.38-.25.89-.14,1.13.25.11.16.15.36.12.55v.03c-.19.08-.37.16-.54.26-.1.06-.2.12-.29.18-.33.22-.42.66-.2.99.11.17.29.28.48.31h.05c-.32.75-.76,1.45-1.31,2.05-.54,2.9-2.85,3.18-5.32,2.33h0c-.27,1.18-.66,2.33-1.17,3.42h-4.19s-.03-.09-.04-.14c.39.02.78,0,1.16-.07-.31-.38-.62-.77-.93-1.15l-.02-.02c-.16-.2-.32-.39-.47-.58h0c0-.6.06-1.19.2-1.78h0Z"/>
    <path id="Pfad_116" data-name="Pfad 116" class="cls-4" d="m41.46,176.61c0,.15.12.28.28.28h58.86c.15,0,.28-.11.29-.26,0-.15-.11-.28-.26-.29-.01,0-.02,0-.03,0h-58.86c-.15,0-.28.12-.28.28h0s0,0,0,0Z"/>
    <path id="Pfad_117" data-name="Pfad 117" class="cls-2" d="m11.83,23.83c-.29,4.3-.15,9.18,3.18,12.36.78.75,1.71,1.33,2.74,1.7.42.15.61-.52.18-.67-1.69-.66-3.09-1.89-3.96-3.48-.99-1.85-1.52-3.9-1.54-6-.04-1.3,0-2.6.09-3.9.03-.46-.67-.45-.7,0Z"/>
    <path id="Pfad_118" data-name="Pfad 118" class="cls-2" d="m17.03,33.66c.86.34,1.65.82,2.35,1.43.65.58.95,1.46.77,2.31-.4,1.39-2.16,1.92-3.39,2.25-.18.06-.28.26-.22.44.06.17.23.27.41.23,1.32-.23,2.52-.89,3.44-1.86.85-1.26.6-2.96-.57-3.93-.72-.62-1.54-1.12-2.42-1.47-.4-.19-.76.41-.35.6Z"/>
  </g>
</svg>